<?xml version="1.0" standalone="no"?>
<svg xmlns:xlink="http://www.w3.org/1999/xlink" id="wave" style="transform:rotate(0deg); transition: 0.3s" viewBox="0 0 1440 260" version="1.1" xmlns="http://www.w3.org/2000/svg"><defs><linearGradient id="sw-gradient-0" x1="0" x2="0" y1="1" y2="0"><stop stop-color="rgba(119, 141, 169, 1)" offset="0%"/><stop stop-color="rgba(65, 90, 119, 1)" offset="100%"/></linearGradient></defs><path style="transform:translate(0, 0px); opacity:1" fill="url(#sw-gradient-0)" d="M0,208L30,195C60,182,120,156,180,160.3C240,165,300,199,360,195C420,191,480,147,540,130C600,113,660,121,720,134.3C780,147,840,165,900,143C960,121,1020,61,1080,47.7C1140,35,1200,69,1260,91C1320,113,1380,121,1440,121.3C1500,121,1560,113,1620,95.3C1680,78,1740,52,1800,52C1860,52,1920,78,1980,99.7C2040,121,2100,139,2160,151.7C2220,165,2280,173,2340,182C2400,191,2460,199,2520,190.7C2580,182,2640,156,2700,121.3C2760,87,2820,43,2880,52C2940,61,3000,121,3060,151.7C3120,182,3180,182,3240,190.7C3300,199,3360,217,3420,208C3480,199,3540,165,3600,143C3660,121,3720,113,3780,95.3C3840,78,3900,52,3960,56.3C4020,61,4080,95,4140,130C4200,165,4260,199,4290,216.7L4320,234L4320,260L4290,260C4260,260,4200,260,4140,260C4080,260,4020,260,3960,260C3900,260,3840,260,3780,260C3720,260,3660,260,3600,260C3540,260,3480,260,3420,260C3360,260,3300,260,3240,260C3180,260,3120,260,3060,260C3000,260,2940,260,2880,260C2820,260,2760,260,2700,260C2640,260,2580,260,2520,260C2460,260,2400,260,2340,260C2280,260,2220,260,2160,260C2100,260,2040,260,1980,260C1920,260,1860,260,1800,260C1740,260,1680,260,1620,260C1560,260,1500,260,1440,260C1380,260,1320,260,1260,260C1200,260,1140,260,1080,260C1020,260,960,260,900,260C840,260,780,260,720,260C660,260,600,260,540,260C480,260,420,260,360,260C300,260,240,260,180,260C120,260,60,260,30,260L0,260Z"/><defs><linearGradient id="sw-gradient-1" x1="0" x2="0" y1="1" y2="0"><stop stop-color="rgba(65, 90, 119, 1)" offset="0%"/><stop stop-color="rgba(13, 27, 42, 1)" offset="100%"/></linearGradient></defs><path style="transform:translate(0, 50px); opacity:0.9" fill="url(#sw-gradient-1)" d="M0,104L30,91C60,78,120,52,180,47.7C240,43,300,61,360,82.3C420,104,480,130,540,147.3C600,165,660,173,720,173.3C780,173,840,165,900,147.3C960,130,1020,104,1080,112.7C1140,121,1200,165,1260,160.3C1320,156,1380,104,1440,91C1500,78,1560,104,1620,125.7C1680,147,1740,165,1800,143C1860,121,1920,61,1980,52C2040,43,2100,87,2160,91C2220,95,2280,61,2340,39C2400,17,2460,9,2520,8.7C2580,9,2640,17,2700,26C2760,35,2820,43,2880,52C2940,61,3000,69,3060,86.7C3120,104,3180,130,3240,130C3300,130,3360,104,3420,108.3C3480,113,3540,147,3600,169C3660,191,3720,199,3780,182C3840,165,3900,121,3960,104C4020,87,4080,95,4140,86.7C4200,78,4260,52,4290,39L4320,26L4320,260L4290,260C4260,260,4200,260,4140,260C4080,260,4020,260,3960,260C3900,260,3840,260,3780,260C3720,260,3660,260,3600,260C3540,260,3480,260,3420,260C3360,260,3300,260,3240,260C3180,260,3120,260,3060,260C3000,260,2940,260,2880,260C2820,260,2760,260,2700,260C2640,260,2580,260,2520,260C2460,260,2400,260,2340,260C2280,260,2220,260,2160,260C2100,260,2040,260,1980,260C1920,260,1860,260,1800,260C1740,260,1680,260,1620,260C1560,260,1500,260,1440,260C1380,260,1320,260,1260,260C1200,260,1140,260,1080,260C1020,260,960,260,900,260C840,260,780,260,720,260C660,260,600,260,540,260C480,260,420,260,360,260C300,260,240,260,180,260C120,260,60,260,30,260L0,260Z"/><defs><linearGradient id="sw-gradient-2" x1="0" x2="0" y1="1" y2="0"><stop stop-color="rgba(65, 90, 119, 1)" offset="0%"/><stop stop-color="rgba(65, 90, 119, 1)" offset="100%"/></linearGradient></defs><path style="transform:translate(0, 100px); opacity:0.8" fill="url(#sw-gradient-2)" d="M0,182L30,182C60,182,120,182,180,177.7C240,173,300,165,360,143C420,121,480,87,540,91C600,95,660,139,720,160.3C780,182,840,182,900,164.7C960,147,1020,113,1080,86.7C1140,61,1200,43,1260,34.7C1320,26,1380,26,1440,56.3C1500,87,1560,147,1620,177.7C1680,208,1740,208,1800,212.3C1860,217,1920,225,1980,199.3C2040,173,2100,113,2160,73.7C2220,35,2280,17,2340,30.3C2400,43,2460,87,2520,104C2580,121,2640,113,2700,125.7C2760,139,2820,173,2880,173.3C2940,173,3000,139,3060,143C3120,147,3180,191,3240,186.3C3300,182,3360,130,3420,95.3C3480,61,3540,43,3600,65C3660,87,3720,147,3780,143C3840,139,3900,69,3960,60.7C4020,52,4080,104,4140,143C4200,182,4260,208,4290,221L4320,234L4320,260L4290,260C4260,260,4200,260,4140,260C4080,260,4020,260,3960,260C3900,260,3840,260,3780,260C3720,260,3660,260,3600,260C3540,260,3480,260,3420,260C3360,260,3300,260,3240,260C3180,260,3120,260,3060,260C3000,260,2940,260,2880,260C2820,260,2760,260,2700,260C2640,260,2580,260,2520,260C2460,260,2400,260,2340,260C2280,260,2220,260,2160,260C2100,260,2040,260,1980,260C1920,260,1860,260,1800,260C1740,260,1680,260,1620,260C1560,260,1500,260,1440,260C1380,260,1320,260,1260,260C1200,260,1140,260,1080,260C1020,260,960,260,900,260C840,260,780,260,720,260C660,260,600,260,540,260C480,260,420,260,360,260C300,260,240,260,180,260C120,260,60,260,30,260L0,260Z"/></svg>